<?xml version="1.0" encoding="UTF-8"?>
<!DOCTYPE svg PUBLIC "-//W3C//DTD SVG 1.1//EN" "http://www.w3.org/Graphics/SVG/1.1/DTD/svg11.dtd">
<!-- Creator: CorelDRAW X8 -->
<svg xmlns="http://www.w3.org/2000/svg" xml:space="preserve" width="48.569mm" height="35.2359mm" version="1.1" style="shape-rendering:geometricPrecision; text-rendering:geometricPrecision; image-rendering:optimizeQuality; fill-rule:evenodd; clip-rule:evenodd"
viewBox="0 0 1795 1302"
 xmlns:xlink="http://www.w3.org/1999/xlink">
 <defs>
  <style type="text/css">
   <![CDATA[
    .fil0 {fill:url(#id0)}
   ]]>
  </style>
  <linearGradient id="id0" gradientUnits="userSpaceOnUse" x1="719.033" y1="1298.26" x2="1075.67" y2="3.76537">
   <stop offset="0" style="stop-opacity:1; stop-color:#0569F5"/>
   <stop offset="1" style="stop-opacity:1; stop-color:#5AC1F5"/>
  </linearGradient>
 </defs>
 <g id="图层_x0020_1">
  <metadata id="CorelCorpID_0Corel-Layer"/>
  <path class="fil0" d="M971 1000c211,206 570,240 824,0 -101,50 -218,78 -309,86 30,-84 52,-183 56,-283 4,-101 -8,-207 -37,-306 -45,151 -140,288 -230,372 -206,-221 -280,-569 -169,-869 -344,119 -585,396 -643,761 -68,-85 -115,-189 -143,-253 -144,241 -155,491 -126,664 -71,26 -143,66 -194,111 116,-48 254,-76 393,-79 155,-3 312,25 444,80 -157,-135 -380,-176 -555,-138 -24,-131 -17,-277 38,-430 43,72 133,181 225,250 -23,-300 124,-631 428,-808 -43,291 55,607 296,834 84,-65 130,-121 182,-188 -8,135 -27,200 -63,288 -147,-1 -277,-26 -417,-92zm-658 82c175,-19 310,1 430,47 155,61 289,152 490,168 199,17 410,-4 497,-160 -182,97 -412,113 -568,80 -146,-31 -270,-108 -393,-153 -161,-58 -321,-80 -456,18z"/>
 </g>
</svg>
