<svg t="1745478789408" class="icon" viewBox="0 0 1024 1024" version="1.1" xmlns="http://www.w3.org/2000/svg" p-id="6208" width="200" height="200"><path d="M753.371429 160.914286a117.028571 117.028571 0 0 1 117.028571 117.028571v482.742857a117.028571 117.028571 0 0 1-117.028571 117.028572H270.628571a117.028571 117.028571 0 0 1-117.028571-117.028572V277.942857a117.028571 117.028571 0 0 1 117.028571-117.028571h482.742858z m0 35.108571H270.628571a81.92 81.92 0 0 0-81.861485 78.701714L188.708571 277.942857v482.742857a81.92 81.92 0 0 0 78.701715 81.861486l3.218285 0.058514h482.742858a81.92 81.92 0 0 0 81.861485-78.701714L835.291429 760.685714V277.942857a81.92 81.92 0 0 0-78.701715-81.861486L753.371429 196.022857z" fill="#F9A925" p-id="6209"></path><path d="M709.485714 263.314286a58.514286 58.514286 0 0 1 58.514286 58.514285v394.971429a58.514286 58.514286 0 0 1-58.514286 58.514286H314.514286a58.514286 58.514286 0 0 1-58.514286-58.514286V321.828571a58.514286 58.514286 0 0 1 58.514286-58.514285h394.971428z m0 35.108571H314.514286a23.405714 23.405714 0 0 0-23.303315 21.269943L291.108571 321.828571v394.971429a23.405714 23.405714 0 0 0 21.269943 23.303314L314.514286 740.205714h394.971428a23.405714 23.405714 0 0 0 23.303315-21.269943L732.891429 716.8V321.828571a23.405714 23.405714 0 0 0-21.269943-23.303314L709.485714 298.422857z" fill="#5A4EFF" p-id="6210"></path><path d="M329.142857 336.457143m29.257143 0l307.2 0q29.257143 0 29.257143 29.257143l0 307.2q0 29.257143-29.257143 29.257143l-307.2 0q-29.257143 0-29.257143-29.257143l0-307.2q0-29.257143 29.257143-29.257143Z" fill="#5A4EFF" p-id="6211"></path><path d="M445.937371 438.974171H403.456v20.128915h38.970514v14.628571H403.456v20.362972h42.481371v14.7456H387.657143V424.228571h58.280228zM522.254629 424.228571h17.788342l-35.2256 84.611658h-14.862628L454.612114 424.228571h17.788343l24.927086 64.248686zM622.679771 424.228571h15.681829v84.611658h-15.681829v-58.1632l-27.0336 37.566171h-0.936228l-27.0336-37.566171v58.1632h-15.5648V424.228571h15.5648l27.501714 39.555658z" fill="#FFFFFF" p-id="6212"></path><path d="M399.506286 555.885714v10.708115H387.657143V555.885714h11.849143z m-0.263315 21.942857v46.782172h-11.322514V577.828571h11.322514zM437.979429 576.950857c4.973714 0 8.864914 1.492114 11.6736 4.476343 2.808686 2.984229 4.213029 7.226514 4.213028 12.726857v30.456686h-11.234743v-27.823543c0-3.101257-0.760686-5.412571-2.282057-6.933943a8.426057 8.426057 0 0 0-6.231771-2.369828c-3.159771 0-6.319543 1.258057-9.479315 3.774171a37.668571 37.668571 0 0 0-1.930971 1.316571v32.036572h-11.322514V577.828571h10.357028l0.789943 5.792915c1.813943-1.696914 4.066743-3.218286 6.7584-4.564115 2.574629-1.345829 5.471086-2.048 8.689372-2.106514zM468.801829 611.5328c4.330057 2.8672 8.718629 4.388571 13.165714 4.564114 1.930971 0 3.4816-0.438857 4.651886-1.316571 1.170286-0.877714 1.755429-2.106514 1.755428-3.6864 0-1.579886-0.877714-2.896457-2.633143-3.949714a41.296457 41.296457 0 0 0-8.074971-3.247543c-4.447086-1.462857-7.753143-3.452343-9.918172-5.968457a11.498057 11.498057 0 0 1-3.072-8.074972c0-3.452343 1.609143-6.436571 4.827429-8.952686 3.101257-2.633143 7.314286-3.949714 12.639086-3.949714 2.984229 0 5.968457 0.4096 8.952685 1.2288 2.925714 0.8192 5.441829 2.048 7.548343 3.6864l-4.476343 8.162743a24.912457 24.912457 0 0 0-11.849142-3.423086 9.508571 9.508571 0 0 0-4.125258 0.702172c-1.170286 0.585143-1.755429 1.462857-1.755428 2.633143 0 1.462857 0.702171 2.633143 2.106514 3.510857 1.404343 0.760686 4.096 1.784686 8.074972 3.072 4.5056 1.462857 7.811657 3.335314 9.918171 5.617371 2.106514 2.223543 3.159771 5.237029 3.159771 9.040457a12.8 12.8 0 0 1-5.090742 10.357029c-3.2768 2.633143-7.197257 3.949714-11.761372 3.949714-7.489829 0.117029-13.780114-1.989486-18.870857-6.319543l4.827429-7.636114zM521.6256 555.885714v10.708115h-11.849143V555.885714h11.849143z m-0.263314 21.942857v46.782172h-11.322515V577.828571h11.322515zM565.467429 555.885714h11.410285v68.725029h-10.4448l-0.6144-3.774172c-1.755429 1.6384-3.920457 2.808686-6.495085 3.510858-1.755429 0.643657-3.569371 0.965486-5.441829 0.965485-6.729143 0-12.112457-2.194286-16.149943-6.582857-4.096-4.447086-6.144-10.298514-6.144-17.554286 0-7.021714 2.135771-12.756114 6.407314-17.2032 4.271543-4.5056 9.508571-6.7584 15.711086-6.7584 2.4576 0 4.7104 0.321829 6.7584 0.965486 1.872457 0.585143 3.540114 1.4336 5.002972 2.545372V555.885714z m-9.918172 59.421257a14.570057 14.570057 0 0 0 6.582857-1.579885 11.556571 11.556571 0 0 0 3.335315-2.720915v-19.6608a14.7456 14.7456 0 0 0-4.827429-2.808685c-1.755429-0.585143-3.598629-0.877714-5.5296-0.877715a11.190857 11.190857 0 0 0-8.338286 3.774172 13.429029 13.429029 0 0 0-3.598628 9.654857c0 4.096 1.199543 7.489829 3.598628 10.181486 2.340571 2.691657 5.266286 4.037486 8.777143 4.037485zM598.703543 605.213257a10.737371 10.737371 0 0 0 3.861943 7.460572c2.223543 1.813943 5.237029 2.720914 9.040457 2.720914 3.042743 0 5.675886-0.526629 7.899428-1.579886 2.165029-1.053257 4.096-2.6624 5.792915-4.827428l7.3728 6.407314a22.089143 22.089143 0 0 1-9.216 7.723886 29.549714 29.549714 0 0 1-11.761372 2.369828c-7.840914 0-13.897143-2.194286-18.168685-6.582857-4.330057-4.388571-6.495086-10.24-6.495086-17.554286 0-7.080229 2.135771-12.9024 6.407314-17.466514 4.213029-4.622629 9.771886-6.933943 16.676572-6.933943 7.138743 0 12.726857 2.135771 16.764342 6.407314 4.037486 4.213029 6.056229 9.654857 6.056229 16.325486l-0.351086 5.5296h-33.879771z m11.410286-17.8176a10.605714 10.605714 0 0 0-6.933943 2.369829 11.615086 11.615086 0 0 0-3.949715 6.319543h21.504a8.660114 8.660114 0 0 0-3.159771-6.231772 11.132343 11.132343 0 0 0-7.460571-2.4576z" fill="#FFFFFF" p-id="6213"></path><path d="M394.971429 55.588571a17.554286 17.554286 0 0 1 17.466514 15.754972L412.525714 73.142857v87.771429a17.554286 17.554286 0 0 1-35.0208 1.799314L377.417143 160.914286V73.142857a17.554286 17.554286 0 0 1 17.554286-17.554286zM394.971429 860.16a17.554286 17.554286 0 0 1 17.466514 15.754971L412.525714 877.714286v87.771428a17.554286 17.554286 0 0 1-35.0208 1.799315L377.417143 965.485714v-87.771428a17.554286 17.554286 0 0 1 17.554286-17.554286zM507.026286 55.588571a17.554286 17.554286 0 0 1 17.481143 15.754972L524.580571 73.142857v87.771429a17.554286 17.554286 0 0 1-35.0208 1.799314L489.486629 160.914286V73.142857a17.554286 17.554286 0 0 1 17.554285-17.554286zM507.026286 860.16a17.554286 17.554286 0 0 1 17.481143 15.754971l0.087771 1.799315v87.771428a17.554286 17.554286 0 0 1-35.0208 1.799315L489.486629 965.485714v-87.771428a17.554286 17.554286 0 0 1 17.554285-17.554286zM624.054857 55.588571a17.554286 17.554286 0 0 1 17.481143 15.754972L641.609143 73.142857v87.771429a17.554286 17.554286 0 0 1-35.0208 1.799314L606.5152 160.914286V73.142857a17.554286 17.554286 0 0 1 17.554286-17.554286zM624.054857 860.16a17.554286 17.554286 0 0 1 17.481143 15.754971l0.087771 1.799315v87.771428a17.554286 17.554286 0 0 1-35.0208 1.799315L606.5152 965.485714v-87.771428a17.554286 17.554286 0 0 1 17.554286-17.554286z" fill="#F9A925" p-id="6214"></path><path d="M958.171429 384.731429a17.554286 17.554286 0 0 1 1.799314 35.0208L958.171429 419.84h-87.771429a17.554286 17.554286 0 0 1-1.799314-35.0208L870.4 384.731429h87.771429zM153.6 384.731429a17.554286 17.554286 0 0 1 1.799314 35.0208L153.6 419.84H65.828571a17.554286 17.554286 0 0 1-1.799314-35.0208L65.828571 384.731429h87.771429zM958.171429 496.786286a17.554286 17.554286 0 0 1 1.799314 35.035428L958.171429 531.894857h-87.771429a17.554286 17.554286 0 0 1-1.799314-35.0208l1.799314-0.087771h87.771429zM153.6 496.786286a17.554286 17.554286 0 0 1 1.799314 35.035428L153.6 531.894857H65.828571a17.554286 17.554286 0 0 1-1.799314-35.0208L65.828571 496.800914h87.771429zM958.171429 613.814857a17.554286 17.554286 0 0 1 1.799314 35.035429L958.171429 648.923429h-87.771429a17.554286 17.554286 0 0 1-1.799314-35.0208l1.799314-0.087772h87.771429zM153.6 613.814857a17.554286 17.554286 0 0 1 1.799314 35.035429L153.6 648.923429H65.828571a17.554286 17.554286 0 0 1-1.799314-35.0208L65.828571 613.829486h87.771429z" fill="#F9A925" p-id="6215"></path><path d="M135.416686 854.513371l1.550628-8.835657 1.550629 8.835657a72.4992 72.4992 0 0 0 56.437028 58.382629 72.4992 72.4992 0 0 0-56.437028 58.382629L136.967314 980.114286l-1.550628-8.835657a72.4992 72.4992 0 0 0-56.437029-58.368 72.4992 72.4992 0 0 0 56.437029-58.397258zM223.232 947.829029l0.848457-4.885943 0.863086 4.885943a40.170057 40.170057 0 0 0 31.275886 32.3584 40.170057 40.170057 0 0 0-31.275886 32.343771l-0.863086 4.900571-0.863086-4.900571a40.170057 40.170057 0 0 0-31.275885-32.343771 40.170057 40.170057 0 0 0 31.275885-32.3584z" fill="#F9A925" p-id="6216"></path><path d="M855.873829 125.893486l-1.579886 8.967314-1.565257-8.967314a72.586971 72.586971 0 0 0-56.466286-58.4704 72.586971 72.586971 0 0 0 56.466286-58.4704L854.308571 0l1.579886 8.952686a72.586971 72.586971 0 0 0 56.466286 58.4704 72.586971 72.586971 0 0 0-56.466286 58.4704zM924.935314 187.889371l-0.877714 4.973715-0.877714-4.973715a40.228571 40.228571 0 0 0-31.275886-32.402285 40.228571 40.228571 0 0 0 31.290514-32.387657l0.877715-4.973715 0.863085 4.973715a40.228571 40.228571 0 0 0 31.290515 32.387657 40.228571 40.228571 0 0 0-31.305143 32.402285z" fill="#5A4EFF" p-id="6217"></path></svg>