<svg t="1745478906116" class="icon" viewBox="0 0 1024 1024" version="1.1" xmlns="http://www.w3.org/2000/svg" p-id="7547" width="200" height="200"><path d="M955.872185 105.931034C954.309685 105.931034 953.37931 104.973559 953.37931 104.486329L953.37931 172.346315C953.37931 171.843796 954.290441 170.901592 955.872185 170.901592L68.127815 170.901592C69.690315 170.901592 70.62069 171.859068 70.62069 172.346315L70.62069 104.486329C70.62069 104.988831 69.709559 105.931034 68.127815 105.931034L955.872185 105.931034ZM0 104.486329 0 172.346315C0 210.41521 30.226573 241.522282 68.127815 241.522282L955.872185 241.522282C993.832819 241.522282 1024 210.326528 1024 172.346315L1024 104.486329C1024 66.417417 993.773427 35.310345 955.872185 35.310345L68.127815 35.310345C30.167181 35.310345 0 66.506099 0 104.486329ZM873.603796 241.522282C871.995357 241.522282 871.191446 240.695155 871.191446 239.961353L871.191446 647.031896C871.191446 646.378337 872.075582 645.470967 873.603796 645.470967L150.396204 645.470967C152.004643 645.470967 152.808554 646.298094 152.808554 647.031896L152.808554 239.961353C152.808554 240.614912 151.924418 241.522282 150.396204 241.522282L873.603796 241.522282ZM82.187864 239.961353 82.187864 647.031896C82.187864 684.858156 112.545086 716.091657 150.396204 716.091657L873.603796 716.091657C911.494109 716.091657 941.812136 684.977011 941.812136 647.031896L941.812136 239.961353C941.812136 202.135093 911.454914 170.901592 873.603796 170.901592L150.396204 170.901592C112.505891 170.901592 82.187864 202.016238 82.187864 239.961353ZM366.495868 716.091657 711.56676 716.091657C716.653692 716.091657 726.690057 722.167314 729.325974 727.059562L861.880938 973.0807C871.130959 990.248695 892.547001 996.66748 909.714997 987.417441 926.88301 978.16742 933.301778 956.751378 924.051756 939.583364L791.496792 705.790835 285.299853 688.135662C285.299853 688.135662 331.954847 744.623687 343.142788 728.650787 347.290394 722.729313 359.836866 716.091657 366.495868 716.091657ZM343.142788 728.650787C354.33073 712.677906 285.299853 705.790835 285.299853 705.790835L110.292003 937.992139C99.104062 953.965021 102.983027 975.983228 118.955908 987.171169 134.928808 998.359111 156.946997 994.480163 168.134956 978.507264L343.142788 728.650787ZM611.62014 518.090116 753.613471 386.926186C767.938454 373.693722 768.824126 351.353997 755.591662 337.029014 742.359199 322.704031 720.019474 321.818359 705.69449 335.050823L563.70116 466.214753C561.007457 468.70302 553.171686 469.777108 550.363224 468.299034 533.105964 459.216631 511.753446 465.843659 502.671042 483.100919 493.588639 500.358197 500.215667 521.710716 517.472927 530.793119 546.889304 546.274781 587.071135 540.766844 611.62014 518.090116ZM408.738233 482.94799C411.540145 480.438254 419.780008 479.377867 422.751991 480.942009L517.472927 530.793119C534.730205 539.875522 556.082723 533.248477 565.165127 515.991217 574.24753 498.733956 567.620484 477.381438 550.363224 468.299034L455.642271 418.447925C426.428646 403.072953 386.300893 408.237021 361.619915 430.344316L237.851048 541.206881C223.324954 554.218249 222.097002 576.541784 235.10837 591.067878 248.11972 605.593988 270.443255 606.821923 284.969366 593.810573L408.738233 482.94799Z" fill="#389BFF" p-id="7548"></path></svg>