<?xml version="1.0" standalone="no"?><!DOCTYPE svg PUBLIC "-//W3C//DTD SVG 1.1//EN" "http://www.w3.org/Graphics/SVG/1.1/DTD/svg11.dtd"><svg t="1745478690690" class="icon" viewBox="0 0 1024 1024" version="1.1" xmlns="http://www.w3.org/2000/svg" p-id="4798" xmlns:xlink="http://www.w3.org/1999/xlink" width="200" height="200"><path d="M548.44928 153.6a30.72 30.72 0 0 1 30.72 30.72v291.7376a30.72 30.72 0 0 1-30.72 30.72H458.76736L493.7216 583.68 351.56992 506.7776H148.48a30.72 30.72 0 0 1-30.72-30.72V184.32a30.72 30.72 0 0 1 30.72-30.72h399.96928z" fill="#E6F0FA" p-id="4799"></path><path d="M502.49216 512c-57.8816 0-104.88832 48.128-104.88832 107.52s46.98624 107.52 104.88832 107.52c57.92256 0 104.9088-48.128 104.9088-107.52s-46.94528-107.52-104.9088-107.52z m0 0c-57.8816 0-104.88832 48.128-104.88832 107.52s46.98624 107.52 104.88832 107.52c57.92256 0 104.9088-48.128 104.9088-107.52s-46.94528-107.52-104.9088-107.52z m-39.30112 250.88512C388.35712 762.88512 327.68 825.07776 327.68 901.76v8.92416C327.68 942.05952 388.352 942.08 463.19104 942.08h87.41888c74.81344 0 135.47008-1.16224 135.47008-31.39584v-8.92416c0-76.68224-60.65664-138.87488-135.47008-138.87488H463.19104z" fill="#85B2FB" p-id="4800"></path><path d="M256.73216 512c-57.8816 0-104.88832 48.128-104.88832 107.52s46.98624 107.52 104.88832 107.52c57.92256 0 104.9088-48.128 104.9088-107.52s-46.9504-107.52-104.9088-107.52z m0 0c-57.8816 0-104.88832 48.128-104.88832 107.52s46.98624 107.52 104.88832 107.52c57.92256 0 104.9088-48.128 104.9088-107.52s-46.9504-107.52-104.9088-107.52z m-39.30112 250.88512C142.59712 762.88512 81.92 825.07776 81.92 901.76v8.92416C81.92 942.05952 142.592 942.08 217.43104 942.08h87.41888C379.66336 942.08 440.32 940.91776 440.32 910.68416v-8.92416c0-76.68224-60.65664-138.87488-135.4752-138.87488H217.43616zM753.37216 512c-57.8816 0-104.88832 48.128-104.88832 107.52s46.98624 107.52 104.88832 107.52c57.92256 0 104.9088-48.128 104.9088-107.52s-46.94528-107.52-104.9088-107.52z m0 0c-57.8816 0-104.88832 48.128-104.88832 107.52s46.98624 107.52 104.88832 107.52c57.92256 0 104.9088-48.128 104.9088-107.52s-46.94528-107.52-104.9088-107.52z m-39.30112 250.88512c-74.83392 0-135.51104 62.19264-135.51104 138.87488v8.92416c0 31.37536 60.67712 31.39584 135.51104 31.39584h87.41888c74.81344 0 135.47008-1.16224 135.47008-31.39584v-8.92416c0-76.68224-60.65664-138.87488-135.47008-138.87488h-87.41888z" fill="#357AF4" p-id="4801"></path><path d="M506.88 76.8a30.72 30.72 0 0 0-30.72 30.72v291.7376a30.72 30.72 0 0 0 30.72 30.72h89.68192L561.60768 506.88l142.15168-76.9024h203.08992a30.72 30.72 0 0 0 30.72-30.72V107.52a30.72 30.72 0 0 0-30.72-30.72H506.88z" fill="#B4D0FF" p-id="4802"></path><path d="M527.96928 76.8a30.72 30.72 0 0 1 30.72 30.72v291.7376a30.72 30.72 0 0 1-30.72 30.72H438.28736L473.2416 506.88 331.08992 429.9776H128a30.72 30.72 0 0 1-30.72-30.72V107.52a30.72 30.72 0 0 1 30.72-30.72h399.96928z" fill="#3C7FEA" p-id="4803"></path><path d="M272.49664 208.42496V327.68H209.92l31.97952-119.2448h30.59712v-0.01024z m15.17056 0c22.46656-13.30688 37.3248-31.08864 44.5696-53.31968 10.86976-33.36192 47.12448 10.67008 21.16608 53.31968h-1.2288l70.41536 0.00512c1.92512 0 3.82976 0.43008 5.56032 1.25952 1.73056 0.82944 3.24096 2.03264 4.42368 3.52256a11.99104 11.99104 0 0 1 2.21696 10.61888l-25.3952 94.6688a12.26752 12.26752 0 0 1-4.49536 6.61504c-2.2016 1.664-4.9152 2.56-7.70048 2.56512H287.7952V208.42496h3.03104-3.16416z" fill="#FFFFFF" p-id="4804"></path><path d="M652.8 220.47232V343.04H588.8l32.70656-122.56256h31.29344z m15.51872 0c22.97344-13.67552 38.16448-31.9488 45.57824-54.80448 11.11552-34.28864 48.19456 10.96704 21.64736 54.80448h-1.25952l72.01792 0.00512c1.9712 0 3.9168 0.44544 5.68832 1.29536 1.7664 0.84992 3.31264 2.08896 4.52096 3.61984a12.47232 12.47232 0 0 1 2.26816 10.91072l-25.97376 97.30048a12.61056 12.61056 0 0 1-4.59264 6.79936 13.0816 13.0816 0 0 1-7.87968 2.6368h-111.88224V220.47232h3.0976-3.23072z" fill="#3C7FEA" p-id="4805"></path></svg>